<svg id="Layer_1" data-name="Layer 1" xmlns="http://www.w3.org/2000/svg" viewBox="0 0 811.15 383.66"><path d="M458.81,27.28A128,128,0,0,0,406,32c-11.65,3.78-31.72,15.27-40.14,23-8,7.31-17.3,18.61-22.07,26.72C338.51,90.62,332,112,331,123.2c-2.14,23.09,2.82,45,14.85,67.14,4.74,8.61,14.41,22.24,20.19,28.24,1.3,1.31,2.14,3.1,1.9,4a89.21,89.21,0,0,0-.19,11.37l.14,9.81,2.72-7.44c1.57-4.13,4.5-12.65,6.67-18.9l3.86-11.49-6.5-8.27c-23.56-29.92-30.06-65.1-17.6-95.35,4.78-11.43,8.26-17.11,15.75-25.28,7.68-8.43,12.27-12.22,21.81-18.06A96.4,96.4,0,0,1,437,45.12c12.24-1,20.7-.09,34.85,3.9,41.3,11.64,68.11,40,74.53,78.78,2.09,12.85,1.54,21.11-2.22,34.8-3.31,11.74-6.32,18.37-12.42,27.46l-3.5,5,3.13,7.32c1.68,4,4,8.93,5.14,10.9l2.13,3.51L546,205.9c10.41-15.56,14.82-25.32,18.39-40.21a100.4,100.4,0,0,0-1.2-51.77C560,102.62,547,79,538.9,69.67,519.7,47.56,488.14,30.87,458.81,27.28Z" transform="translate(-39.79 -26.41)"/><path d="M448.9,60.64A24.67,24.67,0,0,0,433.39,67c-4.05,4.06-7.13,13.89-6,19.19a25.43,25.43,0,0,0,17.92,19c6.83,1.93,11.92,1.6,17.93-1.29,5.41-2.62,8.88-6.84,10.65-13.09s.56-12.31-3.64-18.79C465.38,64.46,458,60.63,448.9,60.64Z" transform="translate(-39.79 -26.41)"/><path d="M505.24,86.71a13.73,13.73,0,0,0-5.38,2.84c-2.63,2.69-4.21,9.42-3.2,12.82,1.38,4.34,6.68,8.74,12.26,10.31l4.81,1.35.1,6c.22,8.79-4.42,24.53-9.29,31.46-8.06,11.65-19.83,19.86-38.11,26.87-9.33,3.6-19.32,9.93-24.93,15.84-3.85,4.11-4.24,14.7-.59,15.72.87.25,4-1.46,7-3.84,10.09-8.17,14-10.38,25.25-14.39,12.73-4.62,20.49-8.57,28.87-14.72,11.29-8.35,20.26-21.73,24.22-36.19,3.62-13.22,3.39-22.32-.86-31.21a21.83,21.83,0,0,1-1.85-8.52c.31-4.79-.91-7.84-4.19-10.94S509.52,85.52,505.24,86.71Z" transform="translate(-39.79 -26.41)"/><path d="M823.55,187.75c-13,.18-23.92.85-24.65,1.58-.57.57-6.24,11.85-12.62,24.91s-11.85,24-12.38,24.36c-.74.41-7.94-13.88-23.47-46.83l-1.67-3.69-6.13,0c-23,0-43.71.25-44.93.53-1.57.39,8.22,19.87,34,68.39,16.22,30.55,17.93,34,17.44,35.78-.24.87-7.74,15.68-16.61,33.14-19.86,38.76-32.9,65.12-33.66,67.81-.41,1.44-.07,2.06.79,2s6.38-.18,12.36-.36,16.73-.38,24-.62l13.18-.34,4.81-10.8c9.58-21.08,20.86-43.78,21.58-43.37a123.82,123.82,0,0,1,5.51,11.43c2.66,6.05,8.06,17.85,11.93,26.22,6.47,13.88,7.33,15.27,9.81,15.34,4.6.27,47.55-.62,48-.79.61-.35-1.75-5.59-8.9-19.65-6.11-12.22-31-64.11-37.72-78.89-2.25-4.89-3.84-9.6-3.59-10.47.51-1.83,14.43-29.49,25.5-50.68,13.79-26.45,22-43.36,21.44-44.34C847.22,187.87,836.4,187.53,823.55,187.75Z" transform="translate(-39.79 -26.41)"/><path d="M392.16,79.46a12.35,12.35,0,0,0-9.7,4.54c-2.73,3.38-3.45,5.58-3,9.54.26,1.63-.54,6.7-1.72,11.26-3.17,12-1.36,23.61,6.05,40.46,8.56,19,29.77,39.25,46.13,43.86,4,1.14,4.29,1,11.74-4.8,4.22-3.17,10.41-7.45,13.68-9.44,6.89-4.19,6.35-2.26,6.46-21.45.07-13.9,1.35-17.7,6.7-20.45,2.58-1.45,7.1-2.36,11.84-2.59,8.53-.4,12.35-2.54,13.57-7.6s-.49-6.37-9.1-6.4c-21.28-.07-21.5,0-24.19,3.26-1.8,2.3-3,5.5-4.56,12.12-2.06,8.78-2.2,8.94-4.58,8.89-3-.11-2.76.57-3.34-7-.73-9.56-1.6-12.4-4.29-15-2.38-2.23-3.18-2.35-15.57-2.62-15-.5-19.92-.11-20.37,1.52-.57,2,5,10.66,7.31,11.31a75.08,75.08,0,0,0,10.06,1.17c7.46.44,7.94.58,11,3.31a12.74,12.74,0,0,1,4,7.06c.75,4.36,1.39,33.74.82,36.18-.31,1.06-1.58.8-6.52-1.21-14.65-5.9-27.11-17-35.7-31.88-4.58-8-6-11.66-7.26-19.19-.94-5.15-1.42-11.21-1.05-13.6.45-3.82.65-4.17,2.48-3.66,2.61.73,9.82-2.74,11.92-5.78,3.38-5,2.61-11.84-2-16.56C400.38,82,395.27,79.5,392.16,79.46Z" transform="translate(-39.79 -26.41)"/><path d="M686.15,188c-.53.37-36.86,1-67.79,1.26-27.81.27-40.11.43-40.58.61-.25.14-.17,17.93.06,39.6,1.17,108.28,2,166.27,2.31,166.89.69,1.23,45.19.37,45.55-.88.16-.57.21-6.28,0-12.57-.74-23.17-1.05-68.56-.52-68.92s26.52-.84,51.55-1.16l7.4-.1.06-3.93c.16-8.68-.56-38.18-.84-38.67s-2.12-.6-4.32-.5c-35.56,1.21-52.59,1.18-53.36-.18-.45-1-.8-14.46-.59-28.12.16-8.68.31-9.57,1.86-9.55.95,0,14.68-.12,30.43-.35s29.49-.32,30.54-.33a2.63,2.63,0,0,0,2.24-1.66c.27-1,.43-10.37.28-20.9-.12-15.83-.44-19.46-1.93-20.07A3.46,3.46,0,0,0,686.15,188Z" transform="translate(-39.79 -26.41)"/><path d="M503.48,230.42c-21.12,29.58-20.91,29.22-19.73,31.32s1.85,6.34,3.08,21.86c1.4,16.4,2.21,33.45,1.6,33.8-.27.24-4.32-6.83-9-15.63s-8.89-16-9.37-16.14-3,3-5.62,7-7.94,11.59-11.84,16.93-7.2,10.43-7.4,11.11c-.3,1.06,10.17,24.37,30,66.43,3.28,7.16,6.66,12.89,7.29,12.86s7.74-.2,15.78-.33c23.48-.35,30.89-.85,31.22-2,.41-1.44.38-12.78,0-43.31-.49-35.47-.63-45-1-75.08-.55-53.35-.27-48.8-4.26-56a80.35,80.35,0,0,0-5.55-9.05l-1.89-2.51Z" transform="translate(-39.79 -26.41)"/><path d="M457.13,206.86c-2.69,2.57-8.58,7.56-13.12,11.16s-8.75,7.82-9.53,9.47c-1.65,3.28-.92,9.92,1.31,11.59,1.8,1.35,3.11.37,17.38-12.24,10.82-9.63,11.12-10,11.84-14.74.71-4.37-.36-9-2.19-9.55C462.43,202.43,459.9,204.42,457.13,206.86Z" transform="translate(-39.79 -26.41)"/><path d="M453.51,235.55c-5.22,4.87-13.73,12.24-18.95,16.38S424,260.58,422.7,262.29a18.1,18.1,0,0,0-3.55,15.53c1,3.72,18.76,34.07,20.2,34.47.29.08,3.61-4,7.46-9.12s9.55-12.89,13-17.33c7.63-10.1,10-17.21,8.42-24.32-1-4-4.27-8.79-5.43-8-.25.14-2.88,2.83-5.83,6l-5.47,5.74,1.4,2.78c1.15,2.2,1.12,3.43-.06,6.12-2.33,4.95-9.15,12.17-11.55,12.22-2.94.1-6.95-4.45-7.86-9-1.06-5.08.75-8.21,8.4-13.95,14-10.6,21.82-19.2,23.67-25.74,1.57-5.58,1.1-10.19-1-10.78C463.51,226.63,459.24,230,453.51,235.55Z" transform="translate(-39.79 -26.41)"/><path d="M261.08,198c-13.77.18-25.72.54-26.41.77-1,.24-2.2,3-3.69,8.31-2.57,9.14-10.83,33.62-26.15,78-12.34,35.69-20,58-29.36,85.76-3.55,10.73-7.71,23-9.22,27.21s-2.47,8-2.05,8.36,10.45.55,22.49.21l26.32-.48c5.51,0,5.54-.1,12.48-24.74l5.45-19.35,28.87-.7c37.57-.94,35.6-1,36.92.95.58.9,4.09,10.19,7.88,20.72s7.31,19.42,7.9,19.89,9.9.61,20.76.45,22.36-.45,25.65-.35,6-.38,6.14-.77-.66-2.47-1.61-4.61c-3.32-7.06-10.75-26.71-23.16-60.86-6.63-18.5-15.54-42.93-19.68-54.38s-12.25-33.59-17.83-49.19C291.71,202.52,290,198.4,287.69,198,286.8,197.81,274.87,197.78,261.08,198Zm5.05,69.8c2.73,7.31,13.32,36.79,17.24,48l1.22,3.77-2.46.24c-2.8.35-32.25.88-36.78.75l-2.89-.08,6.65-21.39c7.24-23.1,12.91-39.89,13.49-39.73C262.79,259.41,264.3,263.26,266.13,267.84Z" transform="translate(-39.79 -26.41)"/><path d="M392,230.47c-1.13,1.45-6.56,9.27-12.06,17.38l-10,14.74.28,20c.11,11,.44,34.2.67,51.41s.6,37.67.72,45.39c.19,18.86.62,23.24,2.1,23.14.63,0,11.73-.32,24.67-.52s24-.62,24.59-1c1.08-.52,1.28-7.11.83-37.58-.12-9.18-.24-25.32-.27-35.92l-.08-19.25L411.14,286c-6.77-12.17-12.16-22.52-12-22.91a67.88,67.88,0,0,1,4.11-6.84l3.87-6L404.74,245c-2.34-5.34-9.12-16.7-10.18-17C394.17,227.87,393,229,392,230.47Z" transform="translate(-39.79 -26.41)"/><path d="M120.05,198.92c-5-.17-42.25.24-69,.9-5.54.1-10.43.49-10.72.83s-.61,7.31-.47,15.66c.65,47.45.89,76.83,1.25,120.88.23,29.05.73,57.14,1.12,66.8.24,4.65.65,5.79,2.24,6,1.11.1,11.21,0,22.49-.2s20.95-.23,21.52-.07a2.31,2.31,0,0,0,1.91-.51c.45-.49.84-16.6.88-35.91s0-36.16.1-37.58c.1-2.57.51-2.57,13-2.89,22.1-.63,35.39-3.53,47.66-10.57,21.45-12.34,34.11-36.62,32.34-62.05-1.72-23-12.35-40.57-31.46-51.68C144.91,204,128.8,199.2,120.05,198.92ZM131.49,249a25.61,25.61,0,0,1,6.06,15.32c.34,5.08-.83,9.22-3.9,14.59-4.94,8.68-19.55,13.7-37.47,12.81l-6.36-.33-.06-5.32c-.13-22.37-.08-38,.12-40.58l.17-3.18,12.81-.13C119.35,241.94,126.94,243.76,131.49,249Z" transform="translate(-39.79 -26.41)"/></svg>