<svg id="Layer_1" data-name="Layer 1" xmlns="http://www.w3.org/2000/svg" viewBox="0 0 95.84 122.5"><path d="M72.35,70.09c-8.46,9.59-8.38,9.47-7.89,10.16s.77,2.08,1.31,7.14c.62,5.36,1,10.92.75,11a46.74,46.74,0,0,1-3.69-5.13A46.2,46.2,0,0,0,59,88a8.56,8.56,0,0,0-2.25,2.28C55.67,91.56,53.56,94,52,95.77a37,37,0,0,0-3,3.6c-.12.34,4.19,8,12.35,21.77,1.35,2.34,2.73,4.22,3,4.21s3.13,0,6.39-.06c9.5,0,12.5-.18,12.62-.55s.12-4.17-.11-14.13C83,99,82.89,95.94,82.66,86.11c-.39-17.41-.26-15.92-1.9-18.3a26.88,26.88,0,0,0-2.28-3L77.71,64Z" transform="translate(-2.03 -3.35)"/><path d="M53.63,3.68A63.6,63.6,0,0,0,32.29,5.07C27.58,6.27,19.5,10,16.12,12.44a46.52,46.52,0,0,0-8.86,8.65C5.14,24,2.55,30.94,2.2,34.58c-.8,7.52,1.28,14.67,6.21,22a59.68,59.68,0,0,0,8.27,9.28c.53.42.87,1,.78,1.29a22.34,22.34,0,0,0,0,3.71L17.5,74l1.08-2.42c.62-1.34,1.78-4.11,2.64-6.14l1.53-3.74L20.09,59c-9.63-9.83-12.37-21.33-7.42-31.16a23.46,23.46,0,0,1,6.3-8.2,32.69,32.69,0,0,1,8.77-5.82A45.19,45.19,0,0,1,44.87,9.43,43.35,43.35,0,0,1,59,10.82C75.74,14.74,86.68,24.07,89.4,36.75c.89,4.2.69,6.89-.79,11.34A24.6,24.6,0,0,1,83.67,57l-1.4,1.64L83.56,61c.69,1.32,1.66,2.93,2.11,3.58l.88,1.15,2.93-3.54c4.17-5,5.92-8.22,7.32-13.06a26.73,26.73,0,0,0-.64-16.9c-1.36-3.7-6.69-11.44-10-14.51C78.34,10.49,65.51,4.94,53.63,3.68Z" transform="translate(-2.03 -3.35)"/><path d="M49.72,14.53a11.24,11.24,0,0,0-6.25,2c-1.63,1.31-2.85,4.51-2.38,6.24.87,3,3.61,5.35,7.31,6.25a11.3,11.3,0,0,0,7.25-.37,6.68,6.68,0,0,0,4.27-4.24c.7-2,.19-4-1.53-6.14C56.41,15.83,53.43,14.56,49.72,14.53Z" transform="translate(-2.03 -3.35)"/><path d="M72.61,23.21a6,6,0,0,0-2.17.92,4.54,4.54,0,0,0-1.25,4.17c.57,1.42,2.73,2.87,5,3.4l1.95.46.06,1.94a18.67,18.67,0,0,1-3.66,10.23c-3.22,3.78-8,6.42-15.34,8.65a30.86,30.86,0,0,0-10,5.09C45.6,59.4,45.47,62.85,47,63.2A6.76,6.76,0,0,0,49.78,62,29.32,29.32,0,0,1,60,57.35,46.42,46.42,0,0,0,71.6,52.64,22.22,22.22,0,0,0,81.29,40.9c1.42-4.3,1.3-7.27-.45-10.18a6.15,6.15,0,0,1-.78-2.79,3.71,3.71,0,0,0-1.73-3.58A8.33,8.33,0,0,0,72.61,23.21Z" transform="translate(-2.03 -3.35)"/><path d="M26.82,20.5A5.43,5.43,0,0,0,22.91,22a3.11,3.11,0,0,0-1.19,3.1,11.09,11.09,0,0,1-.66,3.67c-1.24,3.9-.47,7.7,2.58,13.22,3.52,6.23,12.17,12.9,18.8,14.45,1.64.39,1.75.34,4.74-1.53,1.7-1,4.19-2.4,5.51-3,2.77-1.34,2.56-.71,2.55-7,0-4.54.49-5.77,2.64-6.66a14.5,14.5,0,0,1,4.79-.8c3.45-.11,5-.79,5.47-2.44s-.22-2.08-3.71-2.12c-8.61-.09-8.7-.07-9.78,1-.72.75-1.2,1.79-1.8,3.94C52,40.62,52,40.67,51,40.65c-1.21,0-1.11.18-1.37-2.29-.33-3.12-.69-4-1.79-4.91s-1.29-.78-6.31-.9c-6.08-.21-8.06-.1-8.24.43s2.06,3.49,3,3.71a39.23,39.23,0,0,0,4.08.42c3,.16,3.22.21,4.47,1.11a4.14,4.14,0,0,1,1.66,2.31A92,92,0,0,1,47,52.34c-.12.35-.64.26-2.64-.41A29.06,29.06,0,0,1,29.76,41.41a14.51,14.51,0,0,1-3-6.28,14.73,14.73,0,0,1-.47-4.44c.17-1.24.25-1.36,1-1.19,1.05.25,4-.86,4.8-1.85,1.35-1.61,1-3.85-.85-5.4A8.62,8.62,0,0,0,26.82,20.5Z" transform="translate(-2.03 -3.35)"/><path d="M53.51,62.27c-1.08.82-3.45,2.43-5.27,3.59a17.92,17.92,0,0,0-3.83,3.06c-.66,1.07-.34,3.24.56,3.79.74.44,1.27.13,7-3.94,4.35-3.11,4.47-3.21,4.75-4.77s-.18-3-.92-3.13A10.66,10.66,0,0,0,53.51,62.27Z" transform="translate(-2.03 -3.35)"/><path d="M52.14,71.61c-2.1,1.58-5.52,4-7.62,5.29a38.41,38.41,0,0,0-4.77,3.34,5,5,0,0,0-1.39,5.05c.43,1.22,7.7,11.18,8.28,11.32a24.78,24.78,0,0,0,3-3C51.12,92,53.46,89.48,54.84,88c3-3.27,4-5.59,3.33-7.91-.43-1.32-1.76-2.88-2.23-2.62-.1,0-1.15.92-2.34,1.92l-2.19,1.86.57.91a1.59,1.59,0,0,1,0,2c-.93,1.6-3.67,3.94-4.64,4-1.19,0-2.83-1.48-3.21-3-.44-1.66.28-2.68,3.36-4.53,5.63-3.41,8.77-6.19,9.5-8.32.62-1.82.41-3.32-.45-3.52C56.16,68.73,54.44,69.82,52.14,71.61Z" transform="translate(-2.03 -3.35)"/><path d="M27.22,69.76c-.46.47-2.63,3-4.83,5.64l-4,4.78.17,6.53c.08,3.6.28,11.16.44,16.77s.35,12.3.42,14.82c.14,6.15.33,7.58.93,7.55.25,0,4.75-.07,10-.09s9.7-.13,10-.24c.44-.17.5-2.32.22-12.26-.08-3-.17-8.26-.22-11.72l-.09-6.28L35.14,88c-2.77-4-5-7.38-4.94-7.51a21.28,21.28,0,0,1,1.64-2.22l1.55-1.93-1-1.75c-1-1.75-3.75-5.48-4.18-5.58C28.09,68.92,27.63,69.29,27.22,69.76Z" transform="translate(-2.03 -3.35)"/></svg>